{"title":"Tangled(2010)(Divx)(Cam)(nlsubs)(Black Pearl)-TBS","uid":6044454,"size":881669167,"categoryP":"video","categoryS":"movies","magnet":"?xt=urn:btih:6929c56849915ebd0948be8e98d227eb5712839f&amp;dn=Tangled%282010%29%28Divx%29%28Cam%29%28nlsubs%29%28Black+Pearl%29-TBS&amp;tr=udp%3A%2F%2Ftracker.openbittorrent.com%3A80&amp;tr=udp%3A%2F%2Fopen.demonii.com%3A1337&amp;tr=udp%3A%2F%2Ftracker.coppersurfer.tk%3A6969&amp;tr=udp%3A%2F%2Fexodus.desync.com%3A6969","seeders":0,"leechers":0,"uploader":"blackpearl01","files":-1,"time":1292459251,"description":"Tangled (2010) \nAlternatieve titel: Rapunzel \n\nMomenteel te zien in 93 bioscopen \n\nVerenigde Staten\nAnimatie / Fantasy\n100 minuten\n\ngeregisseerd door Nathan Greno en Byron Howard\nmet de stemmen van Mandy Moore, Zachary Levi en Donna Murphy\n\nDutch:\nHet verhaal over Prinses Rapunzel, die als baby is gestolen uit het paleis van haar ouders en door een heks genaamd Mother Gothel wordt opgesloten in een verborgen hoge toren, waar ze onmogelijk uit kan ontsnappen. Ze snakt naar avontuur in haar leven en droomt ervan de toren te verlaten om te zien waar de vreemde lichten, die ze elk jaar op haar verjaardag ziet, vandaan komen. Dat avontuur kan eindelijk beginnen als de knapste, maar ook beruchtste, crimineel van het koninkrijk, Flynn Rider, langs haar toren komt en naar boven klimt om zich te verstoppen. Ze maken samen de afspraak om uit de toren te ontsnappen en op zoek te gaan naar de lichten. Onderweg ontmoeten ze vele hilarische figuren en beleven ze een magisch avontuur.\n\nEnglish:\nAfter receiving the healing powers from a magical flower, the baby Princess Rapunzel is kidnapped from the palace in the middle of the night by Mother Gothel. Mother Gothel knows that the flower's magical powers are now growing within the golden hair of Rapunzel, and to stay young, she must lock Rapunzel in her hidden tower. Rapunzel is now a teenager and her hair has grown to a length of 70-feet. The beautiful Rapunzel has been in the tower her entire life, and she is curious of the outside world. One day, the bandit Flynn Ryder scales the tower and is taken captive by Rapunzel. Rapunzel strikes a deal with the charming thief to act as her guide to travel to the place where the floating lights come from that she has seen every year on her birthday. Rapunzel is about to have the most exciting and magnificent journey of her life.\n\n******************************************\nInfo:\n\nRelease name.......: Tangled.2010.CAM.READ.NFO.XViD-iNK \n\nSource.............: CAM\n\nVideo\nID                               : 0\nFormat                           : xvid\nCodec ID                         : xvid\nDuration                         : 1h 29mn\nBit rate                         : 1 200 Kbps\nWidth                            : 720 pixels\nHeight                           : 576 pixels\nDisplay aspect ratio             : 5:4\nFrame rate                       : 25.000 fps\nStandard                         : PAL\nBits/(Pixel*Frame)               : 0.116\nStream size                      : 773 MiB (89%)\n\nAudio\nID                               : 1\nFormat                           : MPEG Audio\nFormat version                   : Version 1\nFormat profile                   : Layer 3\nMode                             : Joint stereo\nMode extension                   : MS Stereo\nCodec ID                         : 55\nCodec ID/Hint                    : MP3\nDuration                         : 1h 29mn\nBit rate mode                    : Constant\nBit rate                         : 128 Kbps\nChannel(s)                       : 2 channels\nSampling rate                    : 48.0 KHz\nCompression mode                 : Lossy\nStream size                      : 82.4 MiB (10%)\nAlignment                        : Aligned on interleaves\nInterleave, duration             : 24 ms (0.60 video frame)\nInterleave, preload duration     : 24 ms\n\nSubtitles..........: NL cust. Fast Gollums Twilight Release Team, weer geheel op audio, top werk!\n\nBewerking..........: Dejavu\n\n\nHet is en blijft een CAM, klachten bij de locale bioscoop graag.\n\n  &lt;a href=&quot;\nhttp://www.moviemeter.nl/film/31059&quot; rel=&quot;nofollow&quot; target=&quot;_NEW&quot;&gt;\nhttp://www.moviemeter.nl/film/31059&lt;/a&gt;  &lt;a href=&quot;\nhttp://www.imdb.com/title/tt0398286&quot; rel=&quot;nofollow&quot; target=&quot;_NEW&quot;&gt;\nhttp://www.imdb.com/title/tt0398286&lt;/a&gt;\n\n******************************************\n\nBrought to you by \n\nBlack Pearl\n\n******************************************\n\n\t\t","torrent":{"xt":"urn:btih:6929c56849915ebd0948be8e98d227eb5712839f","amp;dn":"Tangled%282010%29%28Divx%29%28Cam%29%28nlsubs%29%28Black+Pearl%29-TBS","amp;tr":["udp%3A%2F%2Ftracker.openbittorrent.com%3A80","udp%3A%2F%2Fopen.demonii.com%3A1337","udp%3A%2F%2Ftracker.coppersurfer.tk%3A6969","udp%3A%2F%2Fexodus.desync.com%3A6969"],"infoHash":"6929c56849915ebd0948be8e98d227eb5712839f","infoHashBuffer":{"type":"Buffer","data":[105,41,197,104,73,145,94,189,9,72,190,142,152,210,39,235,87,18,131,159]},"announce":[],"urlList":[]}}